# xmcd
#
# Track frame offsets:
#	150
#	16706
#	25485
#	36167
#	52721
#	70312
#	82574
#	102624
#	114286
#	128274
#	140433
#	154238
#	177187
#	191450
#	212127
#	223876
#	237609
#	253217
#	268611
#	280660
#	291600
#	306771
#	320892
#	331756
#
# Disc length: 4567 seconds
#
# Revision: 0
# Processed by: cddbd v1.5.2PL0 Copyright (c) Steve Scherf et al.
# Submitted via: EasyCDDAExtractor 16.0.8.1
#
DISCID=6011d518
DTITLE=Világslágerek magyarul - Szívemben élsz
DYEAR=1900
DGENRE=
TTITLE0=Szivemben élsz
TTITLE1=Mikor jössz már énfelém
TTITLE2=Idegenek az éjszakában
TTITLE3=Szívfájdalom
TTITLE4=Szívem egy vándorcigány
TTITLE5=Hold-folyó
TTITLE6=Józsi hol vagy
TTITLE7=Ha bűn, hogy várok rád
TTITLE8=Szerelmi történet
TTITLE9=Többet ér a boldogságom
TTITLE10=Mint a violák
TTITLE11=Az asszony hogyha sír
TTITLE12=Mélodie d'amour
TTITLE13=Napfényes álom
TTITLE14=Y Viva espana
TTITLE15=Harangszó az esti szélben
TTITLE16=Légy mással boldogabb
TTITLE17=Cigányszerelem
TTITLE18=Pedro kocsmája
TTITLE19=Hétfőn még csókolsz
TTITLE20=Mit szólna sz édesanyád
TTITLE21=Rózsák a sötétben
TTITLE22=A legjobb barátom nője
TTITLE23=Hello, Mary Lou
EXTD=
EXTT0=
EXTT1=
EXTT2=
EXTT3=
EXTT4=
EXTT5=
EXTT6=
EXTT7=
EXTT8=
EXTT9=
EXTT10=
EXTT11=
EXTT12=
EXTT13=
EXTT14=
EXTT15=
EXTT16=
EXTT17=
EXTT18=
EXTT19=
EXTT20=
EXTT21=
EXTT22=
EXTT23=
PLAYORDER=
